<?xml version="1.0" standalone="no"?>
<!DOCTYPE svg PUBLIC "-//W3C//DTD SVG 20010904//EN"
 "http://www.w3.org/TR/2001/REC-SVG-20010904/DTD/svg10.dtd">
<svg version="1.0" xmlns="http://www.w3.org/2000/svg"
 width="299.000000pt" height="230.000000pt" viewBox="0 0 299.000000 230.000000"
 preserveAspectRatio="xMidYMid meet">

<g transform="translate(0.000000,230.000000) scale(0.100000,-0.100000)"
fill="#000000" stroke="none">
<path d="M1030 2146 c-216 -48 -366 -276 -331 -504 26 -166 102 -294 291 -483
143 -144 288 -251 433 -320 56 -26 62 -27 93 -14 94 39 237 136 386 262 l88
73 98 -98 c78 -80 113 -106 177 -138 72 -36 86 -39 159 -39 69 0 86 4 114 23
97 70 77 210 -38 258 -26 11 -71 14 -190 12 -149 -3 -156 -2 -188 20 -56 41
-56 50 3 136 209 304 159 644 -115 779 -61 30 -71 32 -175 32 -106 0 -112 -1
-185 -37 -41 -20 -96 -53 -123 -73 l-47 -36 -58 44 c-75 59 -144 93 -217 106
-71 13 -103 13 -175 -3z m212 -107 c64 -21 103 -44 150 -87 22 -20 25 -29 17
-44 -15 -29 -39 -110 -39 -135 0 -38 22 -71 58 -89 69 -33 142 15 142 94 0 15
-7 53 -16 83 l-16 54 42 37 c23 21 67 50 99 65 50 25 66 28 161 28 88 0 111
-3 145 -22 143 -76 214 -256 170 -426 -16 -63 -65 -167 -88 -185 -12 -10 -18
-4 -36 38 -12 27 -34 65 -50 82 -15 18 -48 65 -73 103 -25 39 -55 79 -67 90
-22 19 -23 19 -37 0 -8 -10 -15 -34 -15 -52 -1 -18 -3 -37 -4 -43 -1 -5 -3
-25 -4 -44 -1 -30 -5 -34 -35 -40 -70 -13 -116 -73 -116 -150 0 -26 -9 -62
-21 -85 -18 -36 -19 -42 -6 -73 18 -44 59 -76 115 -91 37 -10 43 -15 40 -36
-3 -28 -49 -66 -182 -149 l-85 -54 -87 43 c-109 55 -129 81 -129 167 0 73 11
85 67 76 61 -9 141 19 176 64 41 52 63 98 56 116 -3 9 -25 21 -48 27 -54 14
-73 33 -81 79 -7 44 -54 100 -105 128 -34 18 -35 20 -42 97 -4 43 -10 80 -13
84 -9 8 -40 -35 -70 -98 -14 -29 -28 -51 -30 -49 -3 3 -9 29 -15 59 -9 47 -33
91 -43 78 -41 -53 -81 -117 -105 -169 -39 -80 -114 -195 -127 -194 -14 1 -72
99 -95 162 -27 71 -27 183 0 254 68 181 257 270 442 207z m238 -249 c0 -16 -4
-30 -8 -30 -5 0 -7 14 -4 30 2 17 6 30 8 30 2 0 4 -13 4 -30z m-95 -334 c0
-37 -18 -43 -45 -16 -17 17 -19 24 -9 36 7 8 22 14 33 12 16 -2 21 -10 21 -32z
m333 -110 c5 -26 -16 -45 -28 -26 -5 8 -10 23 -10 33 0 24 34 18 38 -7z m741
-256 c58 -16 76 -59 42 -101 -40 -50 -169 -20 -275 64 l-40 32 69 6 c119 9
169 9 204 -1z"/>
<path d="M478 692 c-16 -3 -18 -17 -18 -118 l0 -114 -120 0 -119 0 -3 113 -3
112 -58 3 -57 3 2 -293 3 -293 55 0 55 0 3 128 3 127 119 0 119 0 3 -127 3
-128 55 0 55 0 3 292 2 291 -27 5 c-29 6 -46 5 -75 -1z"/>
<path d="M1143 693 c-18 -7 -19 -563 -1 -581 18 -18 95 -15 102 4 3 9 6 141 6
294 l0 278 -22 6 c-27 7 -68 7 -85 -1z"/>
<path d="M1368 694 c-5 -4 -8 -137 -8 -295 l0 -289 24 -6 c13 -3 38 -4 57 -2
l34 3 3 91 3 91 72 5 c96 6 158 34 193 87 29 45 41 115 30 176 -9 44 -57 101
-105 121 -39 17 -290 32 -303 18z m263 -122 c43 -47 40 -103 -5 -148 -31 -31
-40 -34 -90 -34 l-56 0 0 111 0 111 61 -4 c54 -4 66 -9 90 -36z"/>
<path d="M2320 640 c-9 -6 -15 -25 -15 -52 0 -39 -2 -43 -30 -48 -27 -5 -30
-9 -30 -45 0 -38 2 -40 33 -43 l32 -3 -4 -115 c-5 -135 4 -173 45 -208 25 -21
41 -26 89 -26 82 0 90 5 90 52 0 41 0 41 -34 35 -22 -3 -41 0 -55 9 -19 14
-21 24 -21 135 l0 119 55 0 55 0 0 45 0 45 -55 0 -55 0 0 55 0 55 -42 0 c-24
0 -50 -5 -58 -10z"/>
<path d="M810 543 c-42 -7 -104 -57 -130 -103 -20 -37 -24 -58 -24 -116 1 -95
39 -167 107 -202 52 -27 155 -32 226 -11 57 17 66 30 46 68 -8 17 -17 31 -19
31 -2 0 -23 -7 -46 -15 -57 -20 -93 -19 -138 4 -34 17 -62 54 -62 81 0 6 58
10 140 10 l140 0 6 26 c9 34 -11 118 -37 161 -12 18 -35 41 -51 49 -32 16
-115 26 -158 17z m113 -105 c9 -11 17 -33 17 -49 l0 -29 -86 0 -86 0 7 28 c3
15 13 37 20 49 24 37 96 38 128 1z"/>
<path d="M1964 541 c-90 -23 -143 -92 -151 -196 -9 -112 38 -201 126 -235 68
-27 245 -8 258 27 3 8 0 27 -8 43 l-14 28 -45 -15 c-66 -22 -135 -13 -170 23
-15 16 -31 39 -35 52 l-6 22 140 0 141 0 6 25 c15 62 -27 172 -79 204 -39 24
-115 34 -163 22z m106 -101 c11 -11 20 -33 20 -50 l0 -30 -84 0 -85 0 9 31 c5
18 17 40 26 50 24 26 88 25 114 -1z"/>
<path d="M2687 536 c-50 -18 -74 -41 -87 -82 -24 -72 10 -130 97 -164 96 -38
115 -65 67 -96 -23 -16 -29 -16 -86 0 -34 9 -65 13 -69 9 -5 -5 -11 -23 -15
-40 -6 -30 -3 -33 32 -48 59 -25 153 -23 203 5 64 36 88 108 57 169 -18 33
-42 50 -118 80 -65 26 -79 48 -48 73 27 22 45 22 99 3 45 -15 44 -16 55 37 5
21 1 31 -17 42 -34 23 -125 29 -170 12z"/>
</g>
</svg>
